<?xml version="1.0" encoding="UTF-8" standalone="no"?>
<!DOCTYPE svg PUBLIC "-//W3C//DTD SVG 1.1//EN"
 "http://www.w3.org/Graphics/SVG/1.1/DTD/svg11.dtd">
<!-- Generated by graphviz version 2.43.0 (0)
 -->
<!-- Title: %3 Pages: 1 -->
<svg width="575pt" height="523pt"
 viewBox="0.00 0.00 574.50 523.00" xmlns="http://www.w3.org/2000/svg" xmlns:xlink="http://www.w3.org/1999/xlink">
<g id="graph0" class="graph" transform="scale(1 1) rotate(0) translate(4 519)">
<title>%3</title>
<polygon fill="#eeeeee" stroke="transparent" points="-4,4 -4,-519 570.5,-519 570.5,4 -4,4"/>
<!-- WordModel -->
<g id="node1" class="node">
<title>WordModel</title>
<g id="a_node1"><a xlink:href="http://WordModel_details.html" xlink:title="&lt;TABLE&gt;">
<polygon fill="#3f51b5" stroke="transparent" points="104.5,-492 104.5,-511 294.5,-511 294.5,-492 104.5,-492"/>
<polygon fill="none" stroke="black" points="104.5,-492 104.5,-511 294.5,-511 294.5,-492 104.5,-492"/>
<text text-anchor="start" x="166" y="-498.4" font-family="Roboto" font-size="12.00" fill="white">WordModel</text>
<polygon fill="#bbdefb" stroke="transparent" points="104.5,-473 104.5,-492 202.5,-492 202.5,-473 104.5,-473"/>
<polygon fill="none" stroke="black" points="104.5,-473 104.5,-492 202.5,-492 202.5,-473 104.5,-473"/>
<text text-anchor="start" x="148" y="-479.4" font-family="Roboto" font-size="12.00">id</text>
<polygon fill="#bbdefb" stroke="transparent" points="202.5,-473 202.5,-492 294.5,-492 294.5,-473 202.5,-473"/>
<polygon fill="none" stroke="black" points="202.5,-473 202.5,-492 294.5,-492 294.5,-473 202.5,-473"/>
<text text-anchor="start" x="205.5" y="-479.4" font-family="Roboto" font-size="12.00">CHAR(32) (PK)</text>
<polygon fill="#bbdefb" stroke="transparent" points="104.5,-454 104.5,-473 202.5,-473 202.5,-454 104.5,-454"/>
<polygon fill="none" stroke="black" points="104.5,-454 104.5,-473 202.5,-473 202.5,-454 104.5,-454"/>
<text text-anchor="start" x="138.5" y="-460.4" font-family="Roboto" font-size="12.00">word</text>
<polygon fill="#bbdefb" stroke="transparent" points="202.5,-454 202.5,-473 294.5,-473 294.5,-454 202.5,-454"/>
<polygon fill="none" stroke="black" points="202.5,-454 202.5,-473 294.5,-473 294.5,-454 202.5,-454"/>
<text text-anchor="start" x="213.5" y="-460.4" font-family="Roboto" font-size="12.00">VARCHAR ()</text>
<polygon fill="#bbdefb" stroke="transparent" points="104.5,-435 104.5,-454 202.5,-454 202.5,-435 104.5,-435"/>
<polygon fill="none" stroke="black" points="104.5,-435 104.5,-454 202.5,-454 202.5,-435 104.5,-435"/>
<text text-anchor="start" x="107.5" y="-441.4" font-family="Roboto" font-size="12.00">part_of_speech</text>
<polygon fill="#bbdefb" stroke="transparent" points="202.5,-435 202.5,-454 294.5,-454 294.5,-435 202.5,-435"/>
<polygon fill="none" stroke="black" points="202.5,-435 202.5,-454 294.5,-454 294.5,-435 202.5,-435"/>
<text text-anchor="start" x="213.5" y="-441.4" font-family="Roboto" font-size="12.00">VARCHAR ()</text>
<polygon fill="#bbdefb" stroke="transparent" points="104.5,-416 104.5,-435 202.5,-435 202.5,-416 104.5,-416"/>
<polygon fill="none" stroke="black" points="104.5,-416 104.5,-435 202.5,-435 202.5,-416 104.5,-416"/>
<text text-anchor="start" x="115.5" y="-422.4" font-family="Roboto" font-size="12.00">transcription</text>
<polygon fill="#bbdefb" stroke="transparent" points="202.5,-416 202.5,-435 294.5,-435 294.5,-416 202.5,-416"/>
<polygon fill="none" stroke="black" points="202.5,-416 202.5,-435 294.5,-435 294.5,-416 202.5,-416"/>
<text text-anchor="start" x="213.5" y="-422.4" font-family="Roboto" font-size="12.00">VARCHAR ()</text>
<polygon fill="#bbdefb" stroke="transparent" points="104.5,-397 104.5,-416 202.5,-416 202.5,-397 104.5,-397"/>
<polygon fill="none" stroke="black" points="104.5,-397 104.5,-416 202.5,-416 202.5,-397 104.5,-397"/>
<text text-anchor="start" x="136.5" y="-403.4" font-family="Roboto" font-size="12.00">audio</text>
<polygon fill="#bbdefb" stroke="transparent" points="202.5,-397 202.5,-416 294.5,-416 294.5,-397 202.5,-397"/>
<polygon fill="none" stroke="black" points="202.5,-397 202.5,-416 294.5,-416 294.5,-397 202.5,-397"/>
<text text-anchor="start" x="225.5" y="-403.4" font-family="Roboto" font-size="12.00">BLOB ()</text>
</a>
</g>
</g>
<!-- SemanticModel -->
<g id="node2" class="node">
<title>SemanticModel</title>
<g id="a_node2"><a xlink:href="http://SemanticModel_details.html" xlink:title="&lt;TABLE&gt;">
<polygon fill="#3f51b5" stroke="transparent" points="127.5,-322.5 127.5,-341.5 271.5,-341.5 271.5,-322.5 127.5,-322.5"/>
<polygon fill="none" stroke="black" points="127.5,-322.5 127.5,-341.5 271.5,-341.5 271.5,-322.5 127.5,-322.5"/>
<text text-anchor="start" x="153" y="-328.9" font-family="Roboto" font-size="12.00" fill="white">SemanticModel</text>
<polygon fill="#bbdefb" stroke="transparent" points="127.5,-303.5 127.5,-322.5 179.5,-322.5 179.5,-303.5 127.5,-303.5"/>
<polygon fill="none" stroke="black" points="127.5,-303.5 127.5,-322.5 179.5,-322.5 179.5,-303.5 127.5,-303.5"/>
<text text-anchor="start" x="148" y="-309.9" font-family="Roboto" font-size="12.00">id</text>
<polygon fill="#bbdefb" stroke="transparent" points="179.5,-303.5 179.5,-322.5 271.5,-322.5 271.5,-303.5 179.5,-303.5"/>
<polygon fill="none" stroke="black" points="179.5,-303.5 179.5,-322.5 271.5,-322.5 271.5,-303.5 179.5,-303.5"/>
<text text-anchor="start" x="182.5" y="-309.9" font-family="Roboto" font-size="12.00">CHAR(32) (PK)</text>
<polygon fill="#bbdefb" stroke="transparent" points="127.5,-284.5 127.5,-303.5 179.5,-303.5 179.5,-284.5 127.5,-284.5"/>
<polygon fill="none" stroke="black" points="127.5,-284.5 127.5,-303.5 179.5,-303.5 179.5,-284.5 127.5,-284.5"/>
<text text-anchor="start" x="130.5" y="-290.9" font-family="Roboto" font-size="12.00">word_id</text>
<polygon fill="#bbdefb" stroke="transparent" points="179.5,-284.5 179.5,-303.5 271.5,-303.5 271.5,-284.5 179.5,-284.5"/>
<polygon fill="none" stroke="black" points="179.5,-284.5 179.5,-303.5 271.5,-303.5 271.5,-284.5 179.5,-284.5"/>
<text text-anchor="start" x="190" y="-290.9" font-family="Roboto" font-size="12.00">CHAR(32) ()</text>
</a>
</g>
</g>
<!-- WordModel&#45;&gt;SemanticModel -->
<g id="edge1" class="edge">
<title>WordModel&#45;&gt;SemanticModel</title>
<g id="a_edge1"><a xlink:title="Relation between WordModel and SemanticModel">
<path fill="none" stroke="#1e88e5" stroke-dasharray="5,2" d="M199.5,-392.65C199.5,-380.38 199.5,-367.72 199.5,-356.26"/>
<polygon fill="#1e88e5" stroke="#1e88e5" points="203,-356.12 199.5,-346.12 196,-356.12 203,-356.12"/>
</a>
</g>
<text text-anchor="middle" x="225" y="-367" font-family="Roboto" font-size="10.00">semantics</text>
</g>
<!-- TranslationModel -->
<g id="node3" class="node">
<title>TranslationModel</title>
<g id="a_node3"><a xlink:href="http://TranslationModel_details.html" xlink:title="&lt;TABLE&gt;">
<polygon fill="#3f51b5" stroke="transparent" points="12.5,-210.5 12.5,-229.5 182.5,-229.5 182.5,-210.5 12.5,-210.5"/>
<polygon fill="none" stroke="black" points="12.5,-210.5 12.5,-229.5 182.5,-229.5 182.5,-210.5 12.5,-210.5"/>
<text text-anchor="start" x="47" y="-216.9" font-family="Roboto" font-size="12.00" fill="white">TranslationModel</text>
<polygon fill="#bbdefb" stroke="transparent" points="12.5,-191.5 12.5,-210.5 90.5,-210.5 90.5,-191.5 12.5,-191.5"/>
<polygon fill="none" stroke="black" points="12.5,-191.5 12.5,-210.5 90.5,-210.5 90.5,-191.5 12.5,-191.5"/>
<text text-anchor="start" x="46" y="-197.9" font-family="Roboto" font-size="12.00">id</text>
<polygon fill="#bbdefb" stroke="transparent" points="90.5,-191.5 90.5,-210.5 182.5,-210.5 182.5,-191.5 90.5,-191.5"/>
<polygon fill="none" stroke="black" points="90.5,-191.5 90.5,-210.5 182.5,-210.5 182.5,-191.5 90.5,-191.5"/>
<text text-anchor="start" x="93.5" y="-197.9" font-family="Roboto" font-size="12.00">CHAR(32) (PK)</text>
<polygon fill="#bbdefb" stroke="transparent" points="12.5,-172.5 12.5,-191.5 90.5,-191.5 90.5,-172.5 12.5,-172.5"/>
<polygon fill="none" stroke="black" points="12.5,-172.5 12.5,-191.5 90.5,-191.5 90.5,-172.5 12.5,-172.5"/>
<text text-anchor="start" x="15.5" y="-178.9" font-family="Roboto" font-size="12.00">semantic_id</text>
<polygon fill="#bbdefb" stroke="transparent" points="90.5,-172.5 90.5,-191.5 182.5,-191.5 182.5,-172.5 90.5,-172.5"/>
<polygon fill="none" stroke="black" points="90.5,-172.5 90.5,-191.5 182.5,-191.5 182.5,-172.5 90.5,-172.5"/>
<text text-anchor="start" x="101" y="-178.9" font-family="Roboto" font-size="12.00">CHAR(32) ()</text>
<polygon fill="#bbdefb" stroke="transparent" points="12.5,-153.5 12.5,-172.5 90.5,-172.5 90.5,-153.5 12.5,-153.5"/>
<polygon fill="none" stroke="black" points="12.5,-153.5 12.5,-172.5 90.5,-172.5 90.5,-153.5 12.5,-153.5"/>
<text text-anchor="start" x="23.5" y="-159.9" font-family="Roboto" font-size="12.00">language</text>
<polygon fill="#bbdefb" stroke="transparent" points="90.5,-153.5 90.5,-172.5 182.5,-172.5 182.5,-153.5 90.5,-153.5"/>
<polygon fill="none" stroke="black" points="90.5,-153.5 90.5,-172.5 182.5,-172.5 182.5,-153.5 90.5,-153.5"/>
<text text-anchor="start" x="101.5" y="-159.9" font-family="Roboto" font-size="12.00">VARCHAR ()</text>
<polygon fill="#bbdefb" stroke="transparent" points="12.5,-134.5 12.5,-153.5 90.5,-153.5 90.5,-134.5 12.5,-134.5"/>
<polygon fill="none" stroke="black" points="12.5,-134.5 12.5,-153.5 90.5,-153.5 90.5,-134.5 12.5,-134.5"/>
<text text-anchor="start" x="36.5" y="-140.9" font-family="Roboto" font-size="12.00">word</text>
<polygon fill="#bbdefb" stroke="transparent" points="90.5,-134.5 90.5,-153.5 182.5,-153.5 182.5,-134.5 90.5,-134.5"/>
<polygon fill="none" stroke="black" points="90.5,-134.5 90.5,-153.5 182.5,-153.5 182.5,-134.5 90.5,-134.5"/>
<text text-anchor="start" x="101.5" y="-140.9" font-family="Roboto" font-size="12.00">VARCHAR ()</text>
</a>
</g>
</g>
<!-- SemanticModel&#45;&gt;TranslationModel -->
<g id="edge2" class="edge">
<title>SemanticModel&#45;&gt;TranslationModel</title>
<g id="a_edge2"><a xlink:title="Relation between SemanticModel and TranslationModel">
<path fill="none" stroke="#1e88e5" stroke-dasharray="5,2" d="M174.55,-280.94C165.23,-269.16 154.33,-255.37 143.7,-241.93"/>
<polygon fill="#1e88e5" stroke="#1e88e5" points="146.44,-239.75 137.49,-234.08 140.95,-244.1 146.44,-239.75"/>
</a>
</g>
<text text-anchor="middle" x="187.5" y="-255" font-family="Roboto" font-size="10.00">translations</text>
</g>
<!-- ExampleModel -->
<g id="node4" class="node">
<title>ExampleModel</title>
<g id="a_node4"><a xlink:href="http://ExampleModel_details.html" xlink:title="&lt;TABLE&gt;">
<polygon fill="#3f51b5" stroke="transparent" points="216.5,-201.5 216.5,-220.5 386.5,-220.5 386.5,-201.5 216.5,-201.5"/>
<polygon fill="none" stroke="black" points="216.5,-201.5 216.5,-220.5 386.5,-220.5 386.5,-201.5 216.5,-201.5"/>
<text text-anchor="start" x="257.5" y="-207.9" font-family="Roboto" font-size="12.00" fill="white">ExampleModel</text>
<polygon fill="#bbdefb" stroke="transparent" points="216.5,-182.5 216.5,-201.5 294.5,-201.5 294.5,-182.5 216.5,-182.5"/>
<polygon fill="none" stroke="black" points="216.5,-182.5 216.5,-201.5 294.5,-201.5 294.5,-182.5 216.5,-182.5"/>
<text text-anchor="start" x="250" y="-188.9" font-family="Roboto" font-size="12.00">id</text>
<polygon fill="#bbdefb" stroke="transparent" points="294.5,-182.5 294.5,-201.5 386.5,-201.5 386.5,-182.5 294.5,-182.5"/>
<polygon fill="none" stroke="black" points="294.5,-182.5 294.5,-201.5 386.5,-201.5 386.5,-182.5 294.5,-182.5"/>
<text text-anchor="start" x="297.5" y="-188.9" font-family="Roboto" font-size="12.00">CHAR(32) (PK)</text>
<polygon fill="#bbdefb" stroke="transparent" points="216.5,-163.5 216.5,-182.5 294.5,-182.5 294.5,-163.5 216.5,-163.5"/>
<polygon fill="none" stroke="black" points="216.5,-163.5 216.5,-182.5 294.5,-182.5 294.5,-163.5 216.5,-163.5"/>
<text text-anchor="start" x="219.5" y="-169.9" font-family="Roboto" font-size="12.00">semantic_id</text>
<polygon fill="#bbdefb" stroke="transparent" points="294.5,-163.5 294.5,-182.5 386.5,-182.5 386.5,-163.5 294.5,-163.5"/>
<polygon fill="none" stroke="black" points="294.5,-163.5 294.5,-182.5 386.5,-182.5 386.5,-163.5 294.5,-163.5"/>
<text text-anchor="start" x="305" y="-169.9" font-family="Roboto" font-size="12.00">CHAR(32) ()</text>
<polygon fill="#bbdefb" stroke="transparent" points="216.5,-144.5 216.5,-163.5 294.5,-163.5 294.5,-144.5 216.5,-144.5"/>
<polygon fill="none" stroke="black" points="216.5,-144.5 216.5,-163.5 294.5,-163.5 294.5,-144.5 216.5,-144.5"/>
<text text-anchor="start" x="229.5" y="-150.9" font-family="Roboto" font-size="12.00">example</text>
<polygon fill="#bbdefb" stroke="transparent" points="294.5,-144.5 294.5,-163.5 386.5,-163.5 386.5,-144.5 294.5,-144.5"/>
<polygon fill="none" stroke="black" points="294.5,-144.5 294.5,-163.5 386.5,-163.5 386.5,-144.5 294.5,-144.5"/>
<text text-anchor="start" x="305.5" y="-150.9" font-family="Roboto" font-size="12.00">VARCHAR ()</text>
</a>
</g>
</g>
<!-- SemanticModel&#45;&gt;ExampleModel -->
<g id="edge3" class="edge">
<title>SemanticModel&#45;&gt;ExampleModel</title>
<g id="a_edge3"><a xlink:title="Relation between SemanticModel and ExampleModel">
<path fill="none" stroke="#1e88e5" stroke-dasharray="5,2" d="M224.45,-280.94C235.8,-266.59 249.51,-249.26 262.19,-233.22"/>
<polygon fill="#1e88e5" stroke="#1e88e5" points="265.26,-234.98 268.71,-224.97 259.76,-230.64 265.26,-234.98"/>
</a>
</g>
<text text-anchor="middle" x="268" y="-255" font-family="Roboto" font-size="10.00">examples</text>
</g>
<!-- ExampleTranslationModel -->
<g id="node5" class="node">
<title>ExampleTranslationModel</title>
<g id="a_node5"><a xlink:href="http://ExampleTranslationModel_details.html" xlink:title="&lt;TABLE&gt;">
<polygon fill="#3f51b5" stroke="transparent" points="8.5,-61 8.5,-80 187.5,-80 187.5,-61 8.5,-61"/>
<polygon fill="none" stroke="black" points="8.5,-61 8.5,-80 187.5,-80 187.5,-61 8.5,-61"/>
<text text-anchor="start" x="21.5" y="-67.4" font-family="Roboto" font-size="12.00" fill="white">ExampleTranslationModel</text>
<polygon fill="#bbdefb" stroke="transparent" points="8.5,-42 8.5,-61 95.5,-61 95.5,-42 8.5,-42"/>
<polygon fill="none" stroke="black" points="8.5,-42 8.5,-61 95.5,-61 95.5,-42 8.5,-42"/>
<text text-anchor="start" x="46.5" y="-48.4" font-family="Roboto" font-size="12.00">id</text>
<polygon fill="#bbdefb" stroke="transparent" points="95.5,-42 95.5,-61 187.5,-61 187.5,-42 95.5,-42"/>
<polygon fill="none" stroke="black" points="95.5,-42 95.5,-61 187.5,-61 187.5,-42 95.5,-42"/>
<text text-anchor="start" x="98.5" y="-48.4" font-family="Roboto" font-size="12.00">CHAR(32) (PK)</text>
<polygon fill="#bbdefb" stroke="transparent" points="8.5,-23 8.5,-42 95.5,-42 95.5,-23 8.5,-23"/>
<polygon fill="none" stroke="black" points="8.5,-23 8.5,-42 95.5,-42 95.5,-23 8.5,-23"/>
<text text-anchor="start" x="11.5" y="-29.4" font-family="Roboto" font-size="12.00">translation_id</text>
<polygon fill="#bbdefb" stroke="transparent" points="95.5,-23 95.5,-42 187.5,-42 187.5,-23 95.5,-23"/>
<polygon fill="none" stroke="black" points="95.5,-23 95.5,-42 187.5,-42 187.5,-23 95.5,-23"/>
<text text-anchor="start" x="106" y="-29.4" font-family="Roboto" font-size="12.00">CHAR(32) ()</text>
<polygon fill="#bbdefb" stroke="transparent" points="8.5,-4 8.5,-23 95.5,-23 95.5,-4 8.5,-4"/>
<polygon fill="none" stroke="black" points="8.5,-4 8.5,-23 95.5,-23 95.5,-4 8.5,-4"/>
<text text-anchor="start" x="26" y="-10.4" font-family="Roboto" font-size="12.00">example</text>
<polygon fill="#bbdefb" stroke="transparent" points="95.5,-4 95.5,-23 187.5,-23 187.5,-4 95.5,-4"/>
<polygon fill="none" stroke="black" points="95.5,-4 95.5,-23 187.5,-23 187.5,-4 95.5,-4"/>
<text text-anchor="start" x="106.5" y="-10.4" font-family="Roboto" font-size="12.00">VARCHAR ()</text>
</a>
</g>
</g>
<!-- TranslationModel&#45;&gt;ExampleTranslationModel -->
<g id="edge4" class="edge">
<title>TranslationModel&#45;&gt;ExampleTranslationModel</title>
<g id="a_edge4"><a xlink:title="Relation between TranslationModel and ExampleTranslationModel">
<path fill="none" stroke="#1e88e5" stroke-dasharray="5,2" d="M97.5,-130.71C97.5,-118.89 97.5,-106.29 97.5,-94.44"/>
<polygon fill="#1e88e5" stroke="#1e88e5" points="101,-94.26 97.5,-84.26 94,-94.26 101,-94.26"/>
</a>
</g>
<text text-anchor="middle" x="122" y="-105" font-family="Roboto" font-size="10.00">examples</text>
</g>
<!-- UserModel -->
<g id="node6" class="node">
<title>UserModel</title>
<g id="a_node6"><a xlink:href="http://UserModel_details.html" xlink:title="&lt;TABLE&gt;">
<polygon fill="#3f51b5" stroke="transparent" points="328.5,-473 328.5,-492 558.5,-492 558.5,-473 328.5,-473"/>
<polygon fill="none" stroke="black" points="328.5,-473 328.5,-492 558.5,-492 558.5,-473 328.5,-473"/>
<text text-anchor="start" x="411.5" y="-479.4" font-family="Roboto" font-size="12.00" fill="white">UserModel</text>
<polygon fill="#bbdefb" stroke="transparent" points="328.5,-454 328.5,-473 440.5,-473 440.5,-454 328.5,-454"/>
<polygon fill="none" stroke="black" points="328.5,-454 328.5,-473 440.5,-473 440.5,-454 328.5,-454"/>
<text text-anchor="start" x="379" y="-460.4" font-family="Roboto" font-size="12.00">id</text>
<polygon fill="#bbdefb" stroke="transparent" points="440.5,-454 440.5,-473 558.5,-473 558.5,-454 440.5,-454"/>
<polygon fill="none" stroke="black" points="440.5,-454 440.5,-473 558.5,-473 558.5,-454 440.5,-454"/>
<text text-anchor="start" x="456.5" y="-460.4" font-family="Roboto" font-size="12.00">CHAR(32) (PK)</text>
<polygon fill="#bbdefb" stroke="transparent" points="328.5,-435 328.5,-454 440.5,-454 440.5,-435 328.5,-435"/>
<polygon fill="none" stroke="black" points="328.5,-435 328.5,-454 440.5,-454 440.5,-435 328.5,-435"/>
<text text-anchor="start" x="354" y="-441.4" font-family="Roboto" font-size="12.00">username</text>
<polygon fill="#bbdefb" stroke="transparent" points="440.5,-435 440.5,-454 558.5,-454 558.5,-435 440.5,-435"/>
<polygon fill="none" stroke="black" points="440.5,-435 440.5,-454 558.5,-454 558.5,-435 440.5,-435"/>
<text text-anchor="start" x="443.5" y="-441.4" font-family="Roboto" font-size="12.00">VARCHAR (Unique)</text>
<polygon fill="#bbdefb" stroke="transparent" points="328.5,-416 328.5,-435 440.5,-435 440.5,-416 328.5,-416"/>
<polygon fill="none" stroke="black" points="328.5,-416 328.5,-435 440.5,-435 440.5,-416 328.5,-416"/>
<text text-anchor="start" x="331.5" y="-422.4" font-family="Roboto" font-size="12.00">hashed_password</text>
<polygon fill="#bbdefb" stroke="transparent" points="440.5,-416 440.5,-435 558.5,-435 558.5,-416 440.5,-416"/>
<polygon fill="none" stroke="black" points="440.5,-416 440.5,-435 558.5,-435 558.5,-416 440.5,-416"/>
<text text-anchor="start" x="464.5" y="-422.4" font-family="Roboto" font-size="12.00">VARCHAR ()</text>
</a>
</g>
</g>
</g>
</svg>
